<?xml version="1.0" encoding="utf-8"?>
<svg version="1.1" xmlns="http://www.w3.org/2000/svg" xmlns:xlink="http://www.w3.org/1999/xlink" x="0px" y="0px" viewBox="0 0 1000 1000" enable-background="new 0 0 1000 1000" xml:space="preserve">
<g><g><path style="fill:#497174" d="M303.5,110.3L303.5,110.3c0-0.3,0-0.6,0-0.8c0-0.4,0-0.8-0.1-1.3c-0.1-0.7-0.2-1.3-0.3-2c0,0,0,0,0,0c-1.9-9.9-10.5-17.3-20.9-17.3H111.6c-6.5,0-12.3,2.9-16.2,7.5l-79.2,79c0,0,0,0.1-0.1,0.1c-0.5,0.5-0.9,1-1.3,1.5c-0.2,0.3-0.4,0.5-0.6,0.8c-0.2,0.3-0.4,0.6-0.7,0.9c-0.2,0.3-0.4,0.6-0.6,0.9c-0.2,0.3-0.3,0.6-0.5,0.8c-0.2,0.3-0.3,0.7-0.5,1c-0.1,0.3-0.3,0.6-0.4,0.9c-0.1,0.3-0.2,0.7-0.4,1c-0.1,0.3-0.2,0.7-0.3,1c-0.1,0.3-0.2,0.7-0.3,1c-0.1,0.3-0.2,0.7-0.3,1c-0.1,0.4-0.1,0.8-0.2,1.2c0,0.3-0.1,0.6-0.1,0.9c-0.1,0.7-0.1,1.4-0.1,2.1l0,0v699.3c0,11.8,9.5,21.3,21.3,21.3h170.6c0.7,0,1.4,0,2.1-0.1c0.3,0,0.6-0.1,1-0.1c0.4-0.1,0.7-0.1,1.1-0.2c0.4-0.1,0.7-0.2,1.1-0.3c0.3-0.1,0.6-0.1,0.9-0.2c0.4-0.1,0.7-0.2,1-0.4c0.3-0.1,0.6-0.2,0.9-0.3c0.3-0.1,0.6-0.3,1-0.4c0.3-0.1,0.6-0.3,0.9-0.4c0.3-0.2,0.6-0.3,0.9-0.5c0.3-0.2,0.6-0.3,0.9-0.5c0.3-0.2,0.6-0.4,0.9-0.7c0.3-0.2,0.5-0.4,0.8-0.6c0.4-0.4,0.8-0.7,1.2-1.1c0.1-0.1,0.2-0.2,0.3-0.3l80.3-80.2c4.2-4.2,6.3-9.7,6.2-15.1c0,0,0,0,0-0.1L303.5,110.3C303.5,110.3,303.5,110.3,303.5,110.3z M260.9,800.7l-37.7,37.6v-639l37.7-37.7V800.7z M120.6,131.5h110.2l-37.7,37.7H82.8L120.6,131.5z M180.6,868.5H52.6V211.8h127.9V868.5z"/>
<path style="fill:#497174" d="M646,621.9L646,621.9c0-0.3,0-0.6,0-0.8c0-0.4,0-0.8-0.1-1.3c-0.1-0.7-0.2-1.3-0.3-2c0,0,0,0,0,0c-1.9-9.9-10.5-17.3-20.9-17.3H454.2c-6.5,0-12.3,2.9-16.2,7.5l-79.2,79c0,0,0,0.1-0.1,0.1c-0.5,0.5-0.9,1-1.3,1.5c-0.2,0.3-0.4,0.5-0.6,0.8c-0.2,0.3-0.4,0.6-0.7,0.9c-0.2,0.3-0.4,0.6-0.6,0.9c-0.2,0.3-0.3,0.6-0.5,0.8c-0.2,0.3-0.3,0.7-0.5,1c-0.1,0.3-0.3,0.6-0.4,0.9c-0.1,0.3-0.2,0.7-0.4,1s-0.2,0.7-0.3,1c-0.1,0.3-0.2,0.7-0.3,1c-0.1,0.3-0.2,0.7-0.3,1c-0.1,0.4-0.1,0.8-0.2,1.2c0,0.3-0.1,0.6-0.1,0.9c-0.1,0.7-0.1,1.4-0.1,2.1l0,0v187.6c0,11.8,9.5,21.3,21.3,21.3h170.6c0.7,0,1.4,0,2.1-0.1c0.3,0,0.6-0.1,1-0.1c0.4-0.1,0.7-0.1,1.1-0.2c0.4-0.1,0.7-0.2,1.1-0.3c0.3-0.1,0.6-0.1,0.9-0.2c0.4-0.1,0.7-0.2,1-0.4c0.3-0.1,0.6-0.2,0.9-0.3c0.3-0.1,0.6-0.3,1-0.4c0.3-0.1,0.6-0.3,0.9-0.4c0.3-0.2,0.6-0.4,0.9-0.5c0.3-0.2,0.6-0.3,0.9-0.5c0.3-0.2,0.6-0.4,0.9-0.7c0.3-0.2,0.5-0.4,0.8-0.6c0.4-0.4,0.8-0.7,1.2-1.1c0.1-0.1,0.2-0.2,0.3-0.3l80.3-80.2c4.2-4.2,6.3-9.7,6.2-15.1c0,0,0,0,0-0.1L646,621.9C646,621.9,646,621.9,646,621.9z M603.4,800.7l-37.7,37.6V711.1l37.7-37.7V800.7z M463.1,643.2h110.2l-37.7,37.7H425.4L463.1,643.2z M523.1,868.5H395.2v-145h127.9V868.5z"/>
<path style="fill:#497174" d="M990,280.8C990,280.8,990,280.8,990,280.8L990,280.8c0-0.3,0-0.6,0-0.8c0-0.4,0-0.8-0.1-1.3c-0.1-0.7-0.2-1.3-0.3-2c0,0,0,0,0,0c-1.9-9.9-10.5-17.3-20.9-17.3H798.1c-6.5,0-12.3,2.9-16.2,7.5l-79.2,79c0,0,0,0.1-0.1,0.1c-0.5,0.5-0.9,1-1.3,1.5c-0.2,0.3-0.4,0.5-0.6,0.8c-0.2,0.3-0.4,0.6-0.7,0.9c-0.2,0.3-0.4,0.6-0.6,0.9c-0.2,0.3-0.3,0.6-0.5,0.8c-0.2,0.3-0.3,0.7-0.5,1c-0.1,0.3-0.3,0.6-0.4,0.9c-0.1,0.3-0.2,0.7-0.4,1c-0.1,0.3-0.2,0.7-0.3,1c-0.1,0.3-0.2,0.7-0.3,1c-0.1,0.3-0.2,0.7-0.3,1c-0.1,0.4-0.1,0.8-0.2,1.2c0,0.3-0.1,0.6-0.1,0.9c-0.1,0.7-0.1,1.4-0.1,2.1l0,0v528.7c0,11.8,9.5,21.3,21.3,21.3h170.6c0.7,0,1.4,0,2.1-0.1c0.3,0,0.6-0.1,1-0.1c0.4-0.1,0.7-0.1,1.1-0.2c0.4-0.1,0.7-0.2,1.1-0.3c0.3-0.1,0.6-0.1,0.9-0.2c0.4-0.1,0.7-0.2,1-0.4c0.3-0.1,0.6-0.2,0.9-0.3c0.3-0.1,0.6-0.3,1-0.4c0.3-0.1,0.6-0.3,0.9-0.4c0.3-0.2,0.6-0.3,0.9-0.5c0.3-0.2,0.6-0.3,0.9-0.5c0.3-0.2,0.6-0.4,0.9-0.7c0.3-0.2,0.5-0.4,0.8-0.6c0.4-0.4,0.8-0.7,1.2-1.1c0.1-0.1,0.2-0.2,0.3-0.3l80.3-80.2c4.2-4.2,6.3-9.7,6.2-15.1c0,0,0,0,0-0.1L990,280.8L990,280.8z M807.1,302.1h110.2l-37.7,37.7H769.3L807.1,302.1z M909.7,370l37.7-37.7v468.4l-37.7,37.6V370z M867.1,868.5H739.1V382.4h127.9V868.5z"/></g><g></g><g></g><g></g><g></g><g></g><g></g><g></g><g></g><g></g><g></g><g></g><g></g><g></g><g></g><g></g></g>
</svg>