<svg version="1.1" xmlns="http://www.w3.org/2000/svg" xmlns:xlink="http://www.w3.org/1999/xlink" x="0px" y="0px" viewBox="0 0 1000 1000" enable-background="new 0 0 1000 1000" xml:space="preserve">
<g><g transform="translate(0.000000,511.000000) scale(0.100000,-0.100000)"><path d="M3174.1,4912c-51.1-55.4-93.8-153.4-93.8-217.3c0-153.4,174.7-323.8,328.1-323.8c277,0,562.4-353.7,375-455.9c-234.4-132.1-575.2-835.2-575.2-1180.3c0-127.8-21.3-144.9-328.1-298.3C1725.3,1865.3,847.5,868.2,481-295c-119.3-379.2-161.9-1103.6-85.2-1431.7c132.1-566.8,434.6-975.8,860.7-1167.5c230.1-106.5,336.6-123.6,737.2-140.6c259.9-8.5,549.6,4.2,647.7,25.5c174.7,38.4,178.9,38.4,225.8-93.8c153.4-434.6,707.3-1133.4,1107.9-1389.1c609.3-392,1380.6-396.3,2007-17.1c421.9,255.7,988.6,950.3,1146.3,1406.2c46.8,132.1,51.1,132.1,225.8,93.8c98-21.3,392-34.1,647.7-25.5c400.6,17,507.1,34.1,737.2,140.6c762.8,345.1,1086.6,1333.7,801.1,2458.6c-178.9,698.8-575.2,1389.1-1129.2,1943c-400.5,404.8-758.5,664.7-1248.5,907.6c-353.7,174.7-375,191.7-375,319.6c0,349.4-289.7,954.5-562.5,1171.8c-59.7,46.9-76.7,93.7-59.7,157.6c42.6,136.4,272.7,306.8,404.8,306.8c187.5,0,345.2,149.1,345.2,323.8c0,213-123.6,315.3-370.7,315.3c-362.2,0-835.2-302.5-928.9-592.3c-29.8-102.3-51.1-106.5-375-46.9c-174.7,34.1-315.3,34.1-507.1,0c-259.9-46.9-268.4-46.9-332.4,46.9c-242.9,370.7-592.3,592.3-941.7,592.3C3310.4,5010,3242.2,4988.7,3174.1,4912z M5385.5,3667.8c264.2-93.8,447.4-251.4,592.3-502.8c144.9-255.7,166.2-387.8,55.4-353.7c-174.7,55.4-698.8,110.8-1035.4,110.8c-336.6,0-860.7-55.4-1031.2-110.8c-115.1-34.1-93.8,98,51.1,353.7c208.8,366.4,541.2,558.2,963,562.5C5100,3731.7,5283.3,3701.8,5385.5,3667.8z M4648.4,1123.9c-21.3-1257-68.2-1525.5-353.7-2100.7C3992.1-1590.4,3468-2067.6,2863-2272.2c-592.3-200.2-1286.8-153.4-1538.2,110.8c-306.8,319.6-404.8,903.3-251.4,1504.2C1341.8,408,2100.3,1324.2,3135.7,1835.5c404.8,200.3,1078,400.5,1363.5,404.8h166.2L4648.4,1123.9z M6046,2133.8c1419-353.7,2535.4-1440.2,2876.2-2791c153.4-596.6,55.4-1184.6-251.4-1504.2c-230.1-242.9-771.3-306.8-1350.8-157.7C6403.9-2084.7,5747.7-1394.4,5458-359c-76.7,277-89.5,473-106.5,1461.6l-21.3,1137.7h149.1C5560.3,2240.3,5815.9,2193.4,6046,2133.8z M5129.9-1304.9c51.1-102.2,132.1-238.6,174.7-302.5c46.9-68.2,76.7-127.8,63.9-140.6c-8.5-12.8-179-17.1-379.3-8.5l-357.9,12.8l166.2,311.1c89.5,166.2,183.2,306.8,204.5,306.8S5078.7-1206.9,5129.9-1304.9z M5368.5-2425.6c473,17.1,694.5,8.5,715.8-21.3c17-25.5,132.1-102.3,255.7-174.7c213.1-119.3,225.8-136.4,183.2-230.1c-34.1-76.7-98-110.8-306.8-149.1c-421.8-76.7-1568.1-102.3-2070.9-46.9c-588,68.2-622.1,76.7-673.2,200.2c-46.9,93.8-34.1,106.5,110.8,183.3c85.2,46.9,217.3,127.8,294,183.2c127.8,98,153.4,102.2,468.7,63.9C4529.1-2438.4,4989.3-2442.6,5368.5-2425.6z M4656.9-3742.3c221.6-12.8,596.6-8.5,830.9,12.8c234.4,17,434.6,25.5,443.1,17c29.8-21.3-183.2-183.2-400.5-298.3c-174.7-98-268.5-119.3-532.6-119.3c-272.7,0-349.4,17.1-541.2,123.6c-123.6,68.2-264.2,170.4-319.6,225.8l-98,106.5l106.5-25.6C4205.2-3708.2,4435.3-3729.5,4656.9-3742.3z"/></g></g>
</svg>