<svg version="1.1" xmlns="http://www.w3.org/2000/svg" xmlns:xlink="http://www.w3.org/1999/xlink" x="0px" y="0px" viewBox="0 0 1000 1000" enable-background="new 0 0 1000 1000" xml:space="preserve">
<g>
<path style="fill:#EB6440" d="M407.7,546.2c11.6-28.8,22.6-56.6,33.9-84.2c17.3-42.4,32.9-85.5,56.3-125.3c26-44.3,63.1-72.5,112.8-84.9c27.4-6.8,52.1,1.3,75.8,13.7c10.6,5.5,20.2,13,30.5,19.7c8-7.4,15.8-15.7,24.7-22.6c41.9-32.7,86.7-39.9,137.1-19.6c44.5,17.9,72.3,50.7,92.8,91.7c5.5,11,10.6,22.3,15.3,33.7c8.2,19.8-0.8,42.7-20.2,52c-25.9,12.5-42.3,6.6-55.5-19.5c-12.2-24.2-25.5-47.6-44.7-67.1c-21.5-21.9-40.5-22.9-64-2.9c-8.9,7.6-17.8,15.2-25.8,23.6c-2.1,2.1-2.4,7.9-1.1,11c33.3,77.6,67,155,100.5,232.5c8.5,19.8-0.5,46.5-18.3,56.4c-20.2,11.2-50.3,0.4-59.9-22.1c-16.6-39.2-32.8-78.5-49.2-117.8c-7.4-17.7-14.7-35.4-22.1-53.1c-1-2.3-2.3-4.5-4-7.7c-19.6,44.4-38.8,87.7-57.8,131.1c-16.9,38.5-34.4,76.7-61.7,109.2c-27.6,32.7-63.9,51-105.5,55c-30.7,2.9-58.4-10.6-82.2-30.4c-2.5-2.1-5-4-5.5-4.4c-19.2,13.8-36.2,28.8-55.6,39.6c-29.5,16.5-61.2,18.9-94.1,8c-45.3-15-79.3-42.4-100.8-85.1c-7.6-15.1-16.3-29.9-21.4-45.8c-3.4-10.5-3.7-23.2-1.3-34.1c3.8-17.2,16.6-26.5,32.7-27c18.7-0.6,35.3,4.7,44.2,22.5c13.7,27.1,26.8,54.3,48,76.6c3.6,3.8,7.4,7.4,11.5,10.6c16.5,12.7,32.8,12.6,48.9-0.6c11-9.1,21.6-18.7,31.8-28.7c2-2,2.7-7.3,1.5-10.1c-33.1-79.1-66.5-158.1-100-237c-13-30.7-28.6-60-52.9-83.5c-20.5-19.8-38.6-20.1-59.8-1c-5.8,5.2-11.5,11-15.5,17.5c-11.8,19-23.2,38.3-33.8,58.1c-12,22.4-26.2,31.4-49,29.1c-23-2.3-40.9-29.4-31.9-50.8c15.3-36.4,33.1-72,62.8-99c28.9-26.3,63.8-45.3,103.1-41.4c47.6,4.7,88.6,26.5,116.8,68c23.7,34.8,37.9,73.9,54.5,112c18.4,42.3,36.4,84.7,54.6,127C405.1,541,406.1,543,407.7,546.2z M673.1,352.9c-2.4-2.2-4.6-4.1-6.7-6.1c-25.9-24.3-46.9-23.9-71.4,2.1c-18.3,19.4-31.5,42.2-42.1,66.5c-33.9,77.9-67.5,156-101.2,234.1c-0.2,0.4,0.3,1.2,0.8,3c1.7-2.8,3.1-5,4.5-7.3c2.9,2.8,4.8,4.6,6.7,6.3c25.9,24.4,45.6,24.1,70.8-1.2c23.2-23.3,37.1-52.3,49.9-82c31.3-72.4,62.6-144.8,93.9-217.2c0.7-1.6,1-3.4,2.2-7.3C677.1,348,675.3,350.3,673.1,352.9z"/></g>
</svg>