<svg version="1.1" xmlns="http://www.w3.org/2000/svg" xmlns:xlink="http://www.w3.org/1999/xlink" x="0px" y="0px" viewBox="0 0 1000 1000" enable-background="new 0 0 1000 1000" xml:space="preserve">
<g><path d="M670.2,449.7c0,22-18,40-40,40H230.5c-22,0-40-18-40-40l0,0c0-22,18-40,40-40h399.7C652.2,409.7,670.2,427.7,670.2,449.7L670.2,449.7z"/><path d="M510.3,289.8c0,22-18,40-40,40H230.5c-22,0-40-18-40-40l0,0c0-22,18-40,40-40h239.8C492.3,249.8,510.3,267.8,510.3,289.8L510.3,289.8z"/><path d="M510.3,609.6c0,22-18,40-40,40H230.5c-22,0-40-18-40-40l0,0c0-22,18-40,40-40h239.8C492.3,569.6,510.3,587.6,510.3,609.6L510.3,609.6z"/><path d="M830.1,89.9c0-44-36-79.9-79.9-79.9H110.6c-44,0-79.9,36-79.9,79.9v799.4c0,44,36,79.9,79.9,79.9h319.8L830,569.6l0,0l0,0V89.9z M110.6,849.4V129.9c0-22,18-40,40-40h559.6c22,0,40,18,40,40v406.5L397.2,889.4H150.6C128.6,889.4,110.6,871.4,110.6,849.4z"/><path d="M569.5,990l77.2-20.7l-56.5-56.5L569.5,990z"/><path d="M618.5,884.5C618.5,884.5,618.5,884.5,618.5,884.5l-28.3,28.3l28.2,28.2c0,0,0,0,0,0c0,0,0,0,0,0l28.2,28.2l28.2-28.2c0,0,0,0,0,0l249-249l-56.5-56.5L618.5,884.5z"/><path d="M957.7,601.9c-15.5-15.5-41-15.5-56.5,0l-5.4,5.4l56.5,56.5l5.4-5.4C973.2,642.9,973.2,617.4,957.7,601.9z"/></g>
</svg>