<?xml version="1.0" encoding="utf-8"?>
<svg version="1.1" xmlns="http://www.w3.org/2000/svg" xmlns:xlink="http://www.w3.org/1999/xlink" x="0px" y="0px" viewBox="0 0 1000 1000" enable-background="new 0 0 1000 1000" xml:space="preserve">
<g><path style="fill:#EB6440" d="M990,400.3h-82.6v-70.4c0-59.5-68.9-107.8-153.7-107.8H163.7C79,222.1,10,270.5,10,329.9v340.1c0,59.5,69,107.8,153.7,107.8h590.1c84.7,0,153.7-48.4,153.7-107.8v-70.4H990L990,400.3L990,400.3z M845.9,670.1c0,35.6-41.3,64.6-92.1,64.6H163.7c-50.8,0-92.2-29-92.2-64.6V329.9c0-35.6,41.3-64.7,92.2-64.7h590.1c50.8,0,92.1,29,92.1,64.7V670.1L845.9,670.1z"/>
<path style="fill:#EB6440" d="M516.2,262.8L290.1,552.4h176.4L444,737.3l226.1-289.6H493.7L516.2,262.8z"/></g>
</svg>