<svg version="1.1" xmlns="http://www.w3.org/2000/svg" xmlns:xlink="http://www.w3.org/1999/xlink" x="0px" y="0px" viewBox="0 0 1000 1000" enable-background="new 0 0 1000 1000" xml:space="preserve">
<g><path d="M512.1,200.3c-4.8,0-9.4,1.9-14.2,2C209.8,211.5,10,500,10,500s206.2,300,502.1,299.7C791,798.9,990,502,990,502s-2-2-2-2c0,0,2-2,2-2S791,201.1,512.1,200.3z M498,275.2c123.4,0,226.8,99.4,226.8,222.7S621.3,722.7,498,722.7S275.2,621.3,275.2,498S374.6,275.2,498,275.2z M498,350.2c-24.8,0-44.2,7.5-64.8,18.2c40.8,0,72.9,34.1,72.9,74.9s-32.1,72.9-72.9,72.9c-38.6,0-69.5-29.1-72.9-66.8c-5.6,15.7-10.1,31-10.1,48.6c0,82,65.8,149.8,147.8,149.8c82,0,149.8-67.8,149.8-149.8C647.8,416,580,350.2,498,350.2z M759.2,358.3C840.7,424.9,890.8,500,890.8,500s-50.7,77.2-133.6,143.8c24.6-43.3,38.5-92.7,38.5-145.8C795.6,447.1,781.9,400,759.2,358.3z M230.7,372.4c-17.7,38-28.3,80.7-28.3,125.5c0,45.8,11.9,88.7,30.4,127.6C156.5,563.6,111.2,500,111.2,500S155.9,434.8,230.7,372.4z"/></g>
</svg>