<?xml version="1.0" encoding="utf-8"?>
<svg version="1.1" xmlns="http://www.w3.org/2000/svg" xmlns:xlink="http://www.w3.org/1999/xlink" x="0px" y="0px" viewBox="0 0 1000 1000" enable-background="new 0 0 1000 1000" xml:space="preserve">
<g><g><g><path style="fill:#EB6440" d="M115,793.2h303.6l47.1-105.9c18.9-42.5,50.8-43.1,71.2-1.2l52.3,107.2H885c58,0,105-47,105-105V516.7L702.5,220.5c-16.2-16.6-46.5-20.1-55.9,1.1c-7.5,16.9-13.6,42.6-13.6,81.6c0,31.7,4.6,51.3,10.9,63.1c10.9,20.5,30.6-3.6,35.7-26.2c3.5-15.8,12.2-28.4,32.2-21.2c43.8,15.8,122.5,197.8,122.5,197.8H165.8c0,0,78.8-182,122.5-197.8c20-7.2,28.7,5.4,32.2,21.2c5,22.6,24.8,46.7,35.7,26.2c6.3-11.9,10.9-31.4,10.9-63.1c0-38.9-6.1-64.7-13.6-81.6c-9.4-21.2-39.7-17.8-55.9-1.1L10,516.7v171.5C10,746.2,57,793.2,115,793.2z M605.9,565.7h343v89.3c0,49.3-47,89.3-105,89.3h-238V565.7z M55.5,569.2h343v178.5h-238c-58,0-105-40-105-89.2L55.5,569.2L55.5,569.2L55.5,569.2z"/></g></g><g></g><g></g><g></g><g></g><g></g><g></g><g></g><g></g><g></g><g></g><g></g><g></g><g></g><g></g><g></g></g>
</svg>