<?xml version="1.0" encoding="utf-8"?>
<svg version="1.1" xmlns="http://www.w3.org/2000/svg" xmlns:xlink="http://www.w3.org/1999/xlink" x="0px" y="0px" viewBox="0 0 1000 1000" enable-background="new 0 0 1000 1000" xml:space="preserve">
<g><g transform="translate(0.000000,512.000000) scale(0.100000,-0.100000)">
<path style="fill:#497174" d="M3698.6,4698.5l-792.3-319.6l-254.5-419.1c-139.7-231.6-252.6-440.2-254.5-461.2c0-53.6,2461.1-4828.4,2510.9-4872.5c49.8-44,134-44,183.7-1.9c55.5,49.8,2510.9,4822.7,2510.9,4882c0,40.2-90,139.7-415.3,467l-417.2,417.2L5666,4706.1c-608.6,174.2-1121.5,315.8-1138.7,313.9C4508.1,5020,4135,4874.5,3698.6,4698.5z M4561.7,4407.6c55.5-139.7,99.5-262.2,99.5-273.7c0-17.2-702.4-972.2-771.3-1050.7c-13.4-15.3-1110,461.2-1110,482.3c0,7.7,74.6,137.8,168.4,289l166.5,277.5l650.7,262.2c357.9,143.5,660.3,262.2,671.7,264.1C4450.7,4658.3,4506.2,4545.4,4561.7,4407.6z M6890.8,3829.6l292.8-292.8L6670.7,3311c-281.3-126.3-526.3-231.6-541.6-235.4c-17.2-3.8-248.8,214.3-595.2,562.7l-566.5,570.3l-80.4,200.9c-42.1,111-78.5,206.7-78.5,212.4c0,5.7,401.9-103.3,893.7-243.1l895.6-256.4L6890.8,3829.6z M5287.1,3443l411.5-411.5h-733h-731.1l308.1,411.5c170.3,225.8,313.9,411.5,321.5,411.5C4869.9,3854.5,5061.2,3668.8,5287.1,3443z M3363.7,2964.6c231.6-103.3,424.9-189.5,428.7-193.3c11.5-9.6,708.1-2694.6,700.4-2702.3c-3.8-3.8-1575,3033.3-1596.1,3083.1C2887.2,3177,2860.4,3186.6,3363.7,2964.6z M7101.3,3150.2C7080.3,3096.6,5509.1,65.2,5505.2,69c-9.6,11.5,696.6,2702.3,711.9,2708c9.6,3.8,206.7,91.9,438.3,197.1C7084.1,3165.5,7112.8,3177,7101.3,3150.2z M5842.1,2597.1c-19.2-72.7-212.4-819.1-430.6-1661.2C5193.3,93.9,5009.6-602.7,5003.8-612.3c-5.8-9.6-189.5,675.5-409.6,1521.4C4376.1,1755.1,4179,2511,4159.8,2587.6l-36.4,137.8H5000h878.4L5842.1,2597.1z"/>
<path style="fill:#497174" d="M2397.3,2112.9v-153.1h153.1h153.1v153.1v153.1h-153.1h-153.1V2112.9z"/>
<path style="fill:#497174" d="M7296.5,2112.9v-153.1h153.1h153.1v153.1v153.1h-153.1h-153.1V2112.9z"/>
<path style="fill:#497174" d="M2397.3,1500.5v-153.1h153.1h153.1v153.1v153.1h-153.1h-153.1V1500.5z"/>
<path style="fill:#497174" d="M7296.5,1500.5v-153.1h153.1h153.1v153.1v153.1h-153.1h-153.1V1500.5z"/>
<path style="fill:#497174" d="M1784.9,888.1V735H1938h153.1v153.1v153.1H1938h-153.1V888.1z"/>
<path style="fill:#497174" d="M2397.3,888.1V735h153.1h153.1v153.1v153.1h-153.1h-153.1V888.1z"/>
<path style="fill:#497174" d="M3009.7,888.1V735h153.1h153.1v153.1v153.1h-153.1h-153.1V888.1z"/>
<path style="fill:#497174" d="M6684.1,888.1V735h153.1h153.1v153.1v153.1h-153.1h-153.1V888.1z"/>
<path style="fill:#497174" d="M7296.5,888.1V735h153.1h153.1v153.1v153.1h-153.1h-153.1V888.1z"/>
<path style="fill:#497174" d="M7908.9,888.1V735H8062h153.1v153.1v153.1H8062h-153.1V888.1z"/>
<path style="fill:#497174" d="M1784.9,275.7V122.6H1938h153.1v153.1v153.1H1938h-153.1V275.7z"/>
<path style="fill:#497174" d="M2397.3,275.7V122.6h153.1h153.1v153.1v153.1h-153.1h-153.1V275.7z"/>
<path style="fill:#497174" d="M3009.7,275.7V122.6h153.1h153.1v153.1v153.1h-153.1h-153.1V275.7z"/>
<path style="fill:#497174" d="M6684.1,275.7V122.6h153.1h153.1v153.1v153.1h-153.1h-153.1V275.7z"/>
<path style="fill:#497174" d="M7296.5,275.7V122.6h153.1h153.1v153.1v153.1h-153.1h-153.1V275.7z"/>
<path style="fill:#497174" d="M7908.9,275.7V122.6H8062h153.1v153.1v153.1H8062h-153.1V275.7z"/>
<path style="fill:#497174" d="M1784.9-336.7v-153.1H1938h153.1v153.1v153.1H1938h-153.1V-336.7z"/>
<path style="fill:#497174" d="M2397.3-336.7v-153.1h153.1h153.1v153.1v153.1h-153.1h-153.1V-336.7z"/>
<path style="fill:#497174" d="M3009.7-336.7v-153.1h153.1h153.1v153.1v153.1h-153.1h-153.1V-336.7z"/>
<path style="fill:#497174" d="M3622.1-336.7v-153.1h153.1h153.1v153.1v153.1h-153.1h-153.1V-336.7z"/>
<path style="fill:#497174" d="M6071.7-336.7v-153.1h153.1h153.1v153.1v153.1h-153.1h-153.1V-336.7z"/>
<path style="fill:#497174" d="M6684.1-336.7v-153.1h153.1h153.1v153.1v153.1h-153.1h-153.1V-336.7z"/>
<path style="fill:#497174" d="M7296.5-336.7v-153.1h153.1h153.1v153.1v153.1h-153.1h-153.1V-336.7z"/>
<path style="fill:#497174" d="M7908.9-336.7v-153.1H8062h153.1v153.1v153.1H8062h-153.1V-336.7z"/>
<path style="fill:#497174" d="M1784.9-949.1v-153.1H1938h153.1v153.1V-796H1938h-153.1V-949.1z"/>
<path style="fill:#497174" d="M2397.3-949.1v-153.1h153.1h153.1v153.1V-796h-153.1h-153.1V-949.1z"/>
<path style="fill:#497174" d="M3009.7-949.1v-153.1h153.1h153.1v153.1V-796h-153.1h-153.1V-949.1z"/>
<path style="fill:#497174" d="M3622.1-949.1v-153.1h153.1h153.1v153.1V-796h-153.1h-153.1V-949.1z"/>
<path style="fill:#497174" d="M6071.7-949.1v-153.1h153.1h153.1v153.1V-796h-153.1h-153.1V-949.1z"/>
<path style="fill:#497174" d="M6684.1-949.1v-153.1h153.1h153.1v153.1V-796h-153.1h-153.1V-949.1z"/>
<path style="fill:#497174" d="M7296.5-949.1v-153.1h153.1h153.1v153.1V-796h-153.1h-153.1V-949.1z"/>
<path style="fill:#497174" d="M7908.9-949.1v-153.1H8062h153.1v153.1V-796H8062h-153.1V-949.1z"/>
<path style="fill:#497174" d="M1784.9-1561.5v-153.1H1938h153.1v153.1v153.1H1938h-153.1V-1561.5z"/>
<path style="fill:#497174" d="M2397.3-1561.5v-153.1h153.1h153.1v153.1v153.1h-153.1h-153.1V-1561.5z"/>
<path style="fill:#497174" d="M3009.7-1561.5v-153.1h153.1h153.1v153.1v153.1h-153.1h-153.1V-1561.5z"/>
<path style="fill:#497174" d="M3622.1-1561.5v-153.1h153.1h153.1v153.1v153.1h-153.1h-153.1V-1561.5z"/>
<path style="fill:#497174" d="M4234.5-1561.5v-153.1h153.1h153.1v153.1v153.1h-153.1h-153.1V-1561.5z"/>
<path style="fill:#497174" d="M5459.3-1561.5v-153.1h153.1h153.1v153.1v153.1h-153.1h-153.1V-1561.5z"/>
<path style="fill:#497174" d="M6071.7-1561.5v-153.1h153.1h153.1v153.1v153.1h-153.1h-153.1V-1561.5z"/>
<path style="fill:#497174" d="M6684.1-1561.5v-153.1h153.1h153.1v153.1v153.1h-153.1h-153.1V-1561.5z"/>
<path style="fill:#497174" d="M7296.5-1561.5v-153.1h153.1h153.1v153.1v153.1h-153.1h-153.1V-1561.5z"/>
<path style="fill:#497174" d="M7908.9-1561.5v-153.1H8062h153.1v153.1v153.1H8062h-153.1V-1561.5z"/>
<path style="fill:#497174" d="M866.2-2020.8V-2327H636.6H406.9v-153.1v-153.1h229.7h229.7v-153.1v-153.1H636.6H406.9v-153.1v-153.1h229.7h229.7v-153.1v-153.1H636.6H406.9v-153.1V-3858h229.7h229.7v-153.1v-153.1H636.6H406.9v-153.1v-153.1h533.9h533.9l13.4-59.3c17.2-74.6,116.7-187.6,195.2-220.1c91.9-40.2,6541.3-40.2,6633.1,0c78.5,32.5,178,145.4,195.2,220.1l13.4,59.3h533.9h534v153.1v153.1h-229.7h-229.6v153.1v153.1h229.6h229.7v153.1v153.1h-229.7h-229.6v153.1v153.1h229.6h229.7v153.1v153.1h-229.7h-229.6v153.1v153.1h229.6h229.7v153.1v153.1h-229.7h-229.6v306.2v306.2h-153.1h-153.1v-765.5v-765.5H5000H1172.4v765.5v765.5h-153.1H866.2V-2020.8z M8827.5-3858v-306.2h-151.2h-151.2l-13.4,59.3c-17.2,74.6-116.7,187.6-195.2,220.1c-91.9,40.2-6541.3,40.2-6633.1,0c-78.5-32.5-178-145.4-195.2-220.1l-13.4-59.3h-151.2h-151.2v306.2v306.2H5000h3827.5V-3858z M2091.1-4317.3v-153.1H1938h-153.1v153.1v153.1H1938h153.1V-4317.3z M2703.5-4317.3v-153.1h-153.1h-153.1v153.1v153.1h153.1h153.1V-4317.3z M3315.9-4317.3v-153.1h-153.1h-153.1v153.1v153.1h153.1h153.1V-4317.3z M3928.3-4317.3v-153.1h-153.1h-153.1v153.1v153.1h153.1h153.1V-4317.3z M4540.7-4317.3v-153.1h-153.1h-153.1v153.1v153.1h153.1h153.1V-4317.3z M5153.1-4317.3v-153.1H5000h-153.1v153.1v153.1H5000h153.1V-4317.3z M5765.5-4317.3v-153.1h-153.1h-153.1v153.1v153.1h153.1h153.1V-4317.3z M6377.9-4317.3v-153.1h-153.1h-153.1v153.1v153.1h153.1h153.1V-4317.3z M6990.3-4317.3v-153.1h-153.1h-153.1v153.1v153.1h153.1h153.1V-4317.3z M7602.7-4317.3v-153.1h-153.1h-153.1v153.1v153.1h153.1h153.1V-4317.3z M8215.1-4317.3v-153.1H8062h-153.1v153.1v153.1H8062h153.1V-4317.3z"/>
<path style="fill:#497174" d="M1784.9-2173.9V-2327H1938h153.1v153.1v153.1H1938h-153.1V-2173.9z"/>
<path style="fill:#497174" d="M2397.3-2173.9V-2327h153.1h153.1v153.1v153.1h-153.1h-153.1V-2173.9z"/>
<path style="fill:#497174" d="M3009.7-2173.9V-2327h153.1h153.1v153.1v153.1h-153.1h-153.1V-2173.9z"/>
<path style="fill:#497174" d="M3622.1-2173.9V-2327h153.1h153.1v153.1v153.1h-153.1h-153.1V-2173.9z"/>
<path style="fill:#497174" d="M4234.5-2173.9V-2327h153.1h153.1v153.1v153.1h-153.1h-153.1V-2173.9z"/>
<path style="fill:#497174" d="M4846.9-2173.9V-2327H5000h153.1v153.1v153.1H5000h-153.1V-2173.9z"/>
<path style="fill:#497174" d="M5459.3-2173.9V-2327h153.1h153.1v153.1v153.1h-153.1h-153.1V-2173.9z"/>
<path style="fill:#497174" d="M6071.7-2173.9V-2327h153.1h153.1v153.1v153.1h-153.1h-153.1V-2173.9z"/>
<path style="fill:#497174" d="M6684.1-2173.9V-2327h153.1h153.1v153.1v153.1h-153.1h-153.1V-2173.9z"/>
<path style="fill:#497174" d="M7296.5-2173.9V-2327h153.1h153.1v153.1v153.1h-153.1h-153.1V-2173.9z"/>
<path style="fill:#497174" d="M7908.9-2173.9V-2327H8062h153.1v153.1v153.1H8062h-153.1V-2173.9z"/>
<path style="fill:#497174" d="M1784.9-2786.3v-153.1H1938h153.1v153.1v153.1H1938h-153.1V-2786.3z"/>
<path style="fill:#497174" d="M2397.3-2786.3v-153.1h153.1h153.1v153.1v153.1h-153.1h-153.1V-2786.3z"/>
<path style="fill:#497174" d="M3009.7-2786.3v-153.1h153.1h153.1v153.1v153.1h-153.1h-153.1V-2786.3z"/>
<path style="fill:#497174" d="M3622.1-2786.3v-153.1h153.1h153.1v153.1v153.1h-153.1h-153.1V-2786.3z"/>
<path style="fill:#497174" d="M4234.5-2786.3v-153.1h153.1h153.1v153.1v153.1h-153.1h-153.1V-2786.3z"/>
<path style="fill:#497174" d="M4846.9-2786.3v-153.1H5000h153.1v153.1v153.1H5000h-153.1V-2786.3z"/>
<path style="fill:#497174" d="M5459.3-2786.3v-153.1h153.1h153.1v153.1v153.1h-153.1h-153.1V-2786.3z"/>
<path style="fill:#497174" d="M6071.7-2786.3v-153.1h153.1h153.1v153.1v153.1h-153.1h-153.1V-2786.3z"/>
<path style="fill:#497174" d="M6684.1-2786.3v-153.1h153.1h153.1v153.1v153.1h-153.1h-153.1V-2786.3z"/>
<path style="fill:#497174" d="M7296.5-2786.3v-153.1h153.1h153.1v153.1v153.1h-153.1h-153.1V-2786.3z"/>
<path style="fill:#497174" d="M7908.9-2786.3v-153.1H8062h153.1v153.1v153.1H8062h-153.1V-2786.3z"/></g></g>
</svg>