<?xml version="1.0" encoding="utf-8"?>
<!-- Svg Vector Icons : http://www.onlinewebfonts.com/icon -->
<!DOCTYPE svg PUBLIC "-//W3C//DTD SVG 1.1//EN" "http://www.w3.org/Graphics/SVG/1.1/DTD/svg11.dtd">
<svg version="1.1" xmlns="http://www.w3.org/2000/svg" xmlns:xlink="http://www.w3.org/1999/xlink" x="0px" y="0px" viewBox="0 0 1000 1000" enable-background="new 0 0 1000 1000" xml:space="preserve">
<metadata> Svg Vector Icons : http://www.onlinewebfonts.com/icon </metadata>
<g><g transform="translate(0.000000,512.000000) scale(0.100000,-0.100000)"><path d="M4887.1,4970.2l-59.3-49.7v-443.9v-445.8l49.8-45.9c70.8-67,187.5-63.1,248.7,7.6c45.9,53.6,45.9,57.4,45.9,491.8v436.3l-59.3,49.7c-32.5,28.7-82.3,49.7-112.9,49.7C4969.4,5020,4919.6,4998.9,4887.1,4970.2z"/><path d="M1797,3688.3c-38.3-38.3-49.8-70.8-49.8-130.1c0-74.6,11.5-88,302.3-378.9c294.7-296.6,304.2-302.3,382.7-302.3c112.9,0,176,63.1,176,176c0,78.4-5.7,88-302.3,382.7c-290.8,290.8-304.2,302.3-378.9,302.3C1867.8,3738,1835.2,3726.5,1797,3688.3z"/><path d="M7694.1,3435.7c-296.6-294.7-302.3-304.2-302.3-382.7c0-61.2,11.5-93.8,47.8-128.2c34.4-36.4,67-47.8,128.2-47.8c78.4,0,88,5.7,382.7,302.3c290.9,290.8,302.3,304.2,302.3,378.9c0,59.3-11.5,91.8-49.7,130.1c-38.3,38.3-70.8,49.8-130.1,49.8C7998.3,3738,7984.9,3726.5,7694.1,3435.7z"/><path d="M4703.4,3554.3c-440.1-63.1-765.4-162.6-1098.3-332.9c-845.7-438.2-1465.7-1272.4-1639.8-2210c-53.6-287-49.8-807.5,7.7-1094.5c120.6-595.1,421-1163.3,845.7-1593.9c288.9-290.8,641-535.7,960.5-665.8l130.1-51.7v-855.3v-853.4l47.8-57.4c40.2-49.8,65.1-57.4,181.8-68.9l133.9-13.4v-189.4c0-210.5,21-277.5,97.6-317.6c78.5-40.2,1180.6-40.2,1259,0c76.5,40.2,97.6,107.1,97.6,315.7v187.5l72.7,13.4c38.3,5.7,97.6,11.5,132,11.5c44,0,72.7,15.3,109.1,59.3l49.7,59.3v853.4v855.3l130.1,51.7c453.5,185.6,962.4,597,1270.5,1031.3C7753.4-944.1,7954.3-475.3,8034.7-41c53.6,285.1,49.8,826.6-9.6,1100.2C7895,1675.4,7634.8,2169,7202.3,2616.8c-445.8,461.1-1004.5,767.3-1624.5,893.6C5398,3546.7,4843.1,3575.4,4703.4,3554.3z M5612.3,3139.1c1060-250.7,1812-1014.1,2051.2-2081.8c38.3-172.2,44-250.7,44-572.1c0-398-19.1-533.8-118.6-851.5c-239.2-759.6-889.7-1435.1-1632.1-1693.4c-70.8-24.9-147.3-67-176-97.6c-51.7-53.6-53.6-65.1-53.6-246.8v-191.3H5000h-727.1v191.3c0,181.8-1.9,193.2-51.7,246.8c-30.6,30.6-107.1,72.7-177.9,97.6c-336.8,116.7-692.7,346.3-977.8,629.5c-413.3,413.3-665.9,916.5-755.8,1503.9c-38.3,237.3-24.9,750.1,21,966.3C2575.7,2169,3429.1,2986.1,4559.9,3173.6C4820.1,3217.6,5357.8,3198.4,5612.3,3139.1z M5727.1-3418.1v-459.2h-132c-124.4,0-135.8-3.8-181.8-59.3c-47.9-55.5-49.7-70.8-49.7-267.9v-208.6H5000h-363.5v208.6c0,197.1-1.9,212.4-49.7,267.9c-45.9,55.5-57.4,59.3-181.8,59.3h-132v459.2v459.2H5000h727.1V-3418.1z"/><path d="M4751.3,2645.5c-78.5-9.6-220-38.3-313.8-65.1c-859.1-244.9-1494.4-989.2-1599.6-1873.2c-26.8-225.8-15.3-302.3,51.7-355.9c65.1-49.7,176-51.7,231.5,0c47.8,45.9,51.7,59.3,78.5,327.2c84.2,868.7,729,1515.4,1601.5,1605.3c114.8,13.4,227.7,26.8,250.7,30.6c116.7,23,160.7,187.5,76.5,287C5076.5,2662.7,4977,2674.2,4751.3,2645.5z"/><path d="M515,598.1c-28.7-32.5-49.8-82.3-49.8-112.9s21-80.4,49.8-112.9l49.7-59.3h443.9h445.8l45.9,49.8c67,70.8,63.1,187.5-7.6,248.7c-53.6,45.9-57.4,45.9-491.8,45.9H564.7L515,598.1z"/><path d="M8499.6,601.9c-70.8-70.8-72.7-151.2-5.8-229.6l49.8-59.3h445.8h445.8l49.8,59.3c28.7,32.5,49.7,82.3,49.7,112.9s-21,80.4-49.7,112.9l-49.8,59.3h-440.1h-440.1L8499.6,601.9z"/><path d="M2049.5-2208.8c-296.6-294.7-302.3-304.2-302.3-382.7c0-61.2,11.5-93.8,47.8-128.2c34.4-36.4,67-47.8,128.2-47.8c78.4,0,88,5.7,382.7,302.3c296.6,294.7,302.3,304.2,302.3,382.7c0,61.2-11.5,93.8-47.8,128.2c-34.4,36.4-67,47.8-128.2,47.8C2353.8-1906.5,2344.2-1912.3,2049.5-2208.8z"/><path d="M7439.6-1954.4c-36.4-34.4-47.8-67-47.8-128.2c0-78.4,5.7-88,302.3-382.7c294.7-296.6,304.2-302.3,382.7-302.3c109.1,0,176,67,176,179.9c0,74.6-11.5,88-302.3,378.8c-294.7,296.6-304.2,302.3-382.7,302.3C7506.6-1906.5,7474-1918,7439.6-1954.4z"/></g></g>
</svg>