<svg version="1.1" xmlns="http://www.w3.org/2000/svg" xmlns:xlink="http://www.w3.org/1999/xlink" x="0px" y="0px" viewBox="0 0 1000 1000" enable-background="new 0 0 1000 1000" xml:space="preserve">
<g><g transform="translate(0.000000,511.000000) scale(0.100000,-0.100000)"><path d="M4905.4,4986.7c-96.1-51.9-96.1-65.4-98-870.8v-755.4l53.8-59.6c46.1-50,69.2-61.5,138.4-61.5c69.2,0,92.3,11.5,138.4,61.5l53.8,59.6v749.7c0,538.2-5.8,761.2-23.1,797.7C5126.5,5000.1,4999.6,5038.6,4905.4,4986.7z"/><path d="M1691.4,3669.9c-44.2-44.2-55.7-73.1-55.7-138.4c0-82.7,1.9-84.6,534.4-615.1c347.9-349.8,549.8-538.2,586.3-547.8c146.1-34.6,271,90.3,234.5,238.4c-7.7,32.7-198,236.4-544,586.3c-532.5,532.5-532.5,532.5-615.1,532.5C1764.4,3725.7,1735.6,3714.1,1691.4,3669.9z"/><path d="M7552.4,3193.2c-346-349.8-536.3-553.6-544-586.3c-36.5-148,88.4-273,236.4-236.4c57.7,13.5,1045.7,982.3,1091.9,1070.7c73.1,138.4-13.4,284.5-169.2,284.5C8084.9,3725.7,8084.9,3725.7,7552.4,3193.2z"/><path d="M4669,2743.4c-1013-117.3-1795.4-849.6-2026.1-1895.4c-46.1-205.7-46.1-663.2,0-909.2c75-411.4,226.8-753.5,565.1-1272.5c280.7-430.6,321-524.8,388.3-903.5c86.5-480.6,161.5-674.7,328.7-851.6c59.6-63.4,140.3-121.1,215.3-155.7l119.2-55.8l663.2-5.8c859.3-7.7,959.2,11.5,1157.2,223c159.6,169.2,251.8,415.2,321,843.9c61.5,374.8,90.3,444,392.1,909.2c449.8,690.1,595.9,1113,597.8,1730c0,403.7-75,715.1-263.3,1086.1C6670.1,2391.6,5743.5,2866.4,4669,2743.4z M5432.1,2237.8c517.1-111.5,945.8-415.2,1211-859.3c188.4-319.1,297.9-757.4,271-1093.8c-42.3-499.8-149.9-778.5-544-1384C6053-1587.5,6005-1699,5931.9-2133.4c-57.7-330.6-88.4-442.1-153.8-551.7c-82.7-142.3-96.1-144.2-782.4-144.2c-549.8,0-607.4,3.8-669,36.5c-124.9,65.4-180.7,211.5-259.5,657.4c-73,430.6-124.9,553.6-438.3,1036.1c-319.1,490.2-432.5,734.3-505.6,1076.5c-50,238.4-46.1,632.4,5.8,845.8c94.2,374.8,282.6,701.6,549.8,953.5c290.3,273,622.8,430.6,1038,488.3C4878.5,2287.8,5268.7,2272.4,5432.1,2237.8z"/><path d="M445.7,527c-113.4-63.4-128.8-196.1-32.7-292.2l67.3-67.3l768.9,5.8l770.8,5.8L2072,231c78.8,78.8,75,192.2-9.6,267.2l-61.5,55.7h-755.4C657.2,552,482.3,546.2,445.7,527z"/><path d="M7936.8,498.2c-51.9-46.1-63.4-69.2-63.4-136.5s11.5-90.4,63.4-136.5l61.5-55.7h761.2h761.2l65.3,65.4c69.2,69.2,80.7,128.8,42.3,213.4c-46.1,103.8-65.4,105.7-878.5,105.7h-751.6L7936.8,498.2z"/><path d="M2702.5-1674c-30.8-19.2-284.5-265.3-561.3-544c-503.6-505.6-505.6-507.5-505.6-590.1c0-153.8,146.1-240.3,284.5-167.2c61.5,34.6,1028.4,1003.4,1059.2,1063c61.5,123-34.6,274.9-174.9,274.9C2779.4-1637.5,2735.2-1654.8,2702.5-1674z"/><path d="M7066-1683.6c-55.8-55.7-76.9-126.9-57.7-198c13.5-59.6,982.3-1045.7,1070.7-1093.8c138.4-73.1,284.5,13.4,284.5,167.2c0,82.7,0,84.6-544,626.7c-542.1,542.1-544,544-624.7,544C7133.3-1637.5,7100.6-1649,7066-1683.6z"/><path d="M4161.5-3471.3c-92.3-92.3-84.6-201.8,19.2-284.5c36.5-30.8,109.6-34.6,805.4-34.6c830.4,0,847.7,1.9,893.9,105.7c38.4,84.6,26.9,144.2-42.3,213.4l-65.4,65.4h-772.7h-772.8L4161.5-3471.3z"/><path d="M4194.2-3932.7c-128.8-71.1-124.9-274.9,7.7-334.5c78.8-36.5,1532.1-32.7,1603.2,3.8c126.9,67.3,126.9,263.3,0,330.6C5730.1-3894.2,4263.4-3894.2,4194.2-3932.7z"/><path d="M4540.2-4432.5c-90.4-50-121.1-161.5-71.1-259.5c46.1-88.4,96.1-98,532.5-98c438.3,0,488.3,9.6,532.5,105.7c44.2,98,13.5,205.7-75,251.8C5384.1-4394,4609.4-4394,4540.2-4432.5z"/></g></g>
</svg>