<svg version="1.1" xmlns="http://www.w3.org/2000/svg" xmlns:xlink="http://www.w3.org/1999/xlink" x="0px" y="0px" viewBox="0 0 1000 1000" enable-background="new 0 0 1000 1000" xml:space="preserve">
<g><path style="fill:#EB6440" d="M665.2,652.5c7-6,14.6-11.4,22.7-15.9H300.1c-3.2,0-6.1-1.3-8.4-3.2c0-0.5,0.1-0.9,0.1-1.4h-1.7c-2.1-2.4-3.6-5.5-3.6-9v-11.4V286.1c-3.7-4.2-9-6.9-15.1-6.9H108.2c-4.5,0-8.8,1.5-12.3,4.2c-3.3,2.6-80.7,63.7-80.7,182.1v153C12,622.1,10,626.8,10,632v105.2c0,11.3,9.1,20.5,20.3,20.5h22.2c0-0.8-0.1-1.6-0.1-2.5c0-6.1,0.5-12.1,1.3-17.9c0.9-7,2.3-13.9,4.2-20.5c7.5-25.3,22.1-47.5,41.5-64.2c9.6-8.3,20.4-15.2,32.1-20.5c8.7-3.9,17.8-7,27.4-9c8.8-1.9,17.9-2.9,27.3-2.9c9.3,0,18.5,1,27.3,2.9c9.6,2,18.7,5.1,27.4,9c11.6,5.3,22.3,12.1,31.9,20.3c-0.5,0-0.9,0.2-1.4,0.2h1.5c19.4,16.7,34,38.9,41.5,64.2c2,6.6,3.3,13.5,4.3,20.5c0.8,5.9,1.3,11.9,1.3,17.9c0,0.9-0.1,1.7-0.1,2.5h298.2c0-0.8-0.1-1.6-0.1-2.5c0-6.1,0.6-12.1,1.3-17.9c0.9-7,2.3-13.9,4.3-20.5C631.1,691.4,645.8,669.3,665.2,652.5z M251.2,440H57.4c7.9-67.2,44.9-107.3,58.4-119.8h135.5L251.2,440L251.2,440z"/>
<path style="fill:#EB6440" d="M805.3,631.4c0.4,0.2,0.8,0.4,1.3,0.6c3.1,1.5,6.3,2.9,9.3,4.6c8.1,4.5,15.7,9.9,22.7,15.9c19.4,16.7,34.1,38.9,41.5,64.2c2,6.6,3.4,13.5,4.3,20.5c0.8,5.9,1.4,11.9,1.4,17.9c0,0.9-0.1,1.7-0.1,2.5h42.8c11.2,0,20.3-9.1,20.3-20.5V636.6V632c0-0.2,0-0.4,0-0.6H805.3z"/>
<path style="fill:#EB6440" d="M851.6,716.7c-11.6-30.4-36.4-54.3-67.3-64.2c-10.2-3.3-21-5.1-32.3-5.1c-11.3,0-22.1,1.8-32.3,5.1c-30.9,9.9-55.7,33.8-67.3,64.2c-2.5,6.6-4.4,13.4-5.5,20.5c-1,5.9-1.6,11.8-1.6,17.9c0,0.9,0.1,1.7,0.1,2.5C646.6,815.9,693.9,863,752,863c58.1,0,105.3-47,106.7-105.3c0-0.8,0.1-1.6,0.1-2.5c0-6.1-0.6-12.1-1.6-17.9C856,730.1,854.1,723.3,851.6,716.7z M796.5,757.7c-1.3,23.7-20.7,42.6-44.5,42.6c-23.8,0-43.2-18.9-44.5-42.6c0-0.8-0.2-1.6-0.2-2.5c0-6.4,1.4-12.4,3.7-17.9c3.7-8.6,10-15.6,17.9-20.5c6.8-4.1,14.6-6.7,23.1-6.7c8.5,0,16.3,2.5,23.1,6.7c7.9,4.9,14.2,11.9,17.9,20.5c2.4,5.5,3.8,11.6,3.8,17.9C796.7,756.1,796.5,756.9,796.5,757.7z"/>
<path style="fill:#EB6440" d="M285.9,716.7c-11.6-30.4-36.4-54.3-67.3-64.2c-10.3-3.3-21.1-5.1-32.4-5.1c-11.3,0-22.1,1.8-32.4,5.1c-30.9,9.9-55.7,33.8-67.3,64.2c-2.5,6.6-4.4,13.4-5.5,20.5c-1,5.9-1.6,11.8-1.6,17.9c0,0.9,0.1,1.7,0.1,2.5C80.9,815.9,128.2,863,186.3,863c58.1,0,105.3-47,106.7-105.3c0-0.8,0.1-1.6,0.1-2.5c0-6.1-0.6-12.1-1.6-17.9C290.3,730.1,288.4,723.3,285.9,716.7z M230.8,757.7c-1.3,23.7-20.7,42.6-44.5,42.6c-23.8,0-43.2-18.9-44.5-42.6c-0.1-0.8-0.3-1.6-0.3-2.5c0-6.4,1.4-12.4,3.8-17.9c3.7-8.6,10-15.6,17.9-20.5c6.8-4.1,14.6-6.7,23.1-6.7c8.5,0,16.3,2.5,23.1,6.7c7.8,4.9,14.2,11.9,17.9,20.5c2.4,5.5,3.8,11.6,3.8,17.9C231,756.1,230.8,756.9,230.8,757.7z"/>
<path style="fill:#EB6440" d="M333.4,137L333.4,137c-11.2,0-20.3,9.2-20.3,20.5v60.1c0.2,1,0.6,1.9,0.6,2.9v388.8h19.7v1.6h636.3v-1.6H990V137.1L333.4,137z M516.8,539.8h-85.3v-95.5h85.3V539.8z M636.2,539.8h-85.3V367.9h85.3V539.8z M772.6,539.8h-85.3V215.1h85.3V539.8z M909.1,539.8h-85.3V291.5h85.3V539.8z"/></g>
</svg>