<svg version="1.1" xmlns="http://www.w3.org/2000/svg" xmlns:xlink="http://www.w3.org/1999/xlink" x="0px" y="0px" viewBox="0 0 1000 1000" enable-background="new 0 0 1000 1000" xml:space="preserve">
<g>
<path style="fill:#497174" d="M40.6,928.7c-6.8,0-13.5-2.3-18.9-6.6c-7.4-5.8-11.7-14.7-11.7-24.1V176.5c0-14.1,9.7-26.4,23.4-29.8l306.2-74.6c9.2-2.2,18.8-0.1,26.2,5.7c7.4,5.8,11.7,14.7,11.7,24.1v721.6c0,14.1-9.7,26.4-23.4,29.8L47.9,927.9C45.5,928.4,43,928.7,40.6,928.7z M71.3,200.6v658.6l245-59.7V140.9L71.3,200.6z"/>
<path style="fill:#497174" d="M653.1,928.7c-2.4,0-4.8-0.3-7.3-0.9l-306.2-74.6c-13.7-3.3-23.4-15.6-23.4-29.8V101.9c0-9.4,4.3-18.3,11.7-24.1c7.4-5.8,17-7.8,26.2-5.7l306.3,74.6c13.7,3.4,23.4,15.6,23.4,29.8v721.6c0,9.4-4.3,18.3-11.7,24.1C666.6,926.5,659.9,928.7,653.1,928.7z M377.5,799.4l245,59.7V200.6l-245-59.7V799.4z"/>
<path style="fill:#497174" d="M653.1,928.7c-6.8,0-13.5-2.3-18.9-6.6c-7.4-5.8-11.7-14.7-11.7-24.1V176.5c0-14.1,9.7-26.4,23.4-29.8l306.3-74.6c9.2-2.2,18.8-0.1,26.2,5.7c7.4,5.8,11.7,14.7,11.7,24.1v721.6c0,14.1-9.7,26.4-23.4,29.8l-306.2,74.6C658,928.4,655.5,928.7,653.1,928.7z M683.8,200.6v658.6l245-59.7V140.9L683.8,200.6z"/></g>
</svg>