<?xml version="1.0" encoding="utf-8"?>
<!-- Svg Vector Icons : http://www.onlinewebfonts.com/icon -->
<!DOCTYPE svg PUBLIC "-//W3C//DTD SVG 1.1//EN" "http://www.w3.org/Graphics/SVG/1.1/DTD/svg11.dtd">
<svg version="1.1" xmlns="http://www.w3.org/2000/svg" xmlns:xlink="http://www.w3.org/1999/xlink" x="0px" y="0px" viewBox="0 0 1000 1000" enable-background="new 0 0 1000 1000" xml:space="preserve">
<metadata> Svg Vector Icons : http://www.onlinewebfonts.com/icon </metadata>
<g><g transform="translate(0.000000,511.000000) scale(0.100000,-0.100000)"><path d="M4809.2,4998.6c-524.3-51.1-1093.3-213.1-1536.6-432.6c-837.6-419.8-1538.7-1310.7-1805.1-2297.4c-49-185.4-55.4-245.1-55.4-569c0-338.9,4.3-373,57.5-532.8c32-93.8,57.5-202.5,57.5-240.8c0-53.3-78.9-196.1-345.3-618.1c-390-624.4-422-682-422-814.1c0-164.1,78.9-294.1,283.4-466.7c123.6-102.3,179-164.1,172.6-189.7c-68.2-323.9-72.5-379.4-42.6-479.5c17.1-55.4,63.9-144.9,106.6-196c66.1-81,76.7-106.6,76.7-206.8c0-125.7,57.5-270.6,174.8-439c68.2-95.9,70.3-108.7,83.1-366.6c14.9-317.6,59.7-458.2,200.3-611.7c225.9-253.6,545.6-309,1259.5-219.5c185.4,23.4,396.4,42.6,468.9,42.6c164.1,0,164.1,0,488-511.5c341-539.2,451.8-639.4,709.7-639.4c91.6,0,3154.2,805.6,3282,863.1c115.1,53.3,272.8,215.2,326.1,336.7c36.2,83.1,49,151.4,49,270.7c0,153.4-6.4,176.9-166.2,539.2c-193.9,447.5-234.4,611.7-217.4,867.4c25.6,402.8,157.7,752.3,537.1,1434.3c404.9,722.5,564.8,1104,637.2,1517.4c185.4,1065.6-138.5,2131.2-871.7,2857.9c-596.7,592.5-1491.8,986.7-2489.2,1093.3C5638.3,5011.4,4986.1,5017.8,4809.2,4998.6z M6002.7,4427.4C7127.9,4237.7,7974,3698.5,8385.4,2910c112.9-215.2,225.9-558.4,270.7-803.5c42.6-245.1,42.6-718.2,0-963.3c-66.1-375.1-189.7-660.7-628.7-1455.6c-436.9-795-571.2-1223.3-547.7-1760.4c12.8-313.3,40.5-417.7,228-861c147.1-345.2,166.2-411.3,130-468.9c-14.9-23.4-2900.5-814.1-3058.3-837.6c-32-4.2-95.9,78.9-294.1,387.9c-296.2,462.4-407.1,598.8-556.2,675.6c-98,51.2-140.7,59.7-355.9,66.1c-153.4,4.3-336.7-4.2-490.2-25.6c-377.2-53.3-635.1-63.9-743.8-29.8c-155.6,46.9-179,98-193.9,426.2c-17,302.6-23.4,332.5-159.8,549.9c-76.7,125.7-83.1,149.2-78.9,257.9c8.5,142.8-25.6,238.7-132.1,353.8c-72.5,81-74.6,87.4-51.1,168.4c12.8,44.7,25.6,164.1,25.6,264.3c2.1,260-42.6,332.5-385.7,611.6l-46.9,38.4L1638,15.8c375.1,596.7,419.8,684.1,434.8,867.4c10.7,112.9,2.1,168.4-55.4,347.4c-117.2,375.1-108.7,660.7,34.1,1095.4c140.7,428.4,407.1,863.1,743.8,1212.6c483.8,505.1,1125.3,797.1,1992.7,912.2C5071.3,4487.1,5721.4,4474.3,6002.7,4427.4z"/><path d="M5282.3,3813.6c-12.8-14.9-27.7-123.6-29.8-238.7l-6.4-211l-144.9-36.2c-313.3-78.8-543.4-247.2-658.5-483.8c-66.1-134.3-70.3-153.4-70.3-377.2c0-206.7,6.4-247.2,55.4-351.7c134.3-287.7,381.5-447.5,1023-658.5c398.5-132.1,530.7-255.7,530.7-498.7c0-136.4-19.2-185.4-102.3-277.1c-108.7-115.1-387.9-153.5-601-85.3c-157.7,51.2-243,138.5-287.7,294.1c-21.3,70.3-46.9,140.7-57.5,155.6c-27.7,34.1-575.4,36.2-639.4,2.1c-38.4-21.3-42.6-36.2-29.8-151.3c49-419.8,351.7-703.3,850.3-799.2l185.4-36.2v-196.1c0-260,4.3-264.3,277.1-264.3c274.9,0,277.1,2.1,277.1,274.9V81.9l172.6,51.2c483.8,138.5,737.4,509.4,664.9,974c-61.8,402.8-313.3,624.4-944.1,837.6c-317.6,106.6-539.2,219.5-596.7,298.4c-91.6,127.9-91.6,362.3,0,488c83.1,119.4,298.4,176.9,490.2,130c142.8-34.1,264.3-149.2,298.4-281.3c51.2-200.3,25.6-187.5,366.6-187.5c168.3,0,317.5,8.5,334.6,19.2c46.9,29.8,19.2,270.7-46.9,415.6c-63.9,140.7-243,328.2-379.4,398.5c-51.2,25.6-159.8,68.2-243,95.9l-149.2,46.9l-10.7,211c-6.4,115.1-19.2,221.6-27.7,236.6C5757.6,3852,5314.3,3852,5282.3,3813.6z"/></g></g>
</svg>