<svg version="1.1" xmlns="http://www.w3.org/2000/svg" xmlns:xlink="http://www.w3.org/1999/xlink" x="0px" y="0px" viewBox="0 0 1000 1000" enable-background="new 0 0 1000 1000" xml:space="preserve">
<g><g><g><path d="M648.1,623.5h-78.9c-16.3,0-29.6,13.2-29.6,29.6c0,16.4,13.3,29.6,29.6,29.6h78.9c16.3,0,29.6-13.2,29.6-29.6C677.7,636.8,664.4,623.5,648.1,623.5z"/><path d="M798.6,623.5h-81.3c-16.3,0-29.6,13.2-29.6,29.6c0,16.4,13.3,29.6,29.6,29.6h81.3c16.3,0,29.5-13.2,29.5-29.6C828.1,636.8,814.9,623.5,798.6,623.5z"/><path d="M212.7,368.1h260c16.3,0,29.6-13.2,29.6-29.6c0-16.4-13.2-29.6-29.6-29.6h-260c-16.3,0-29.6,13.2-29.6,29.6C183.1,354.9,196.4,368.1,212.7,368.1z"/><path d="M960.4,900.3h-38.6V401.4c0-16.3-13.3-29.6-29.6-29.6h-64V70.1c0-16.3-13.3-29.6-29.6-29.6h-81.3c-16.3,0-29.6,13.2-29.6,29.6v301.7h-26V70.1c0-16.3-13.3-29.6-29.6-29.6h-81.3c-16.3,0-29.6,13.2-29.6,29.6v301.7H107.9c-16.3,0-29.6,13.2-29.6,29.6v498.9H39.6c-16.4,0-29.6,13.2-29.6,29.6c0,16.3,13.2,29.6,29.6,29.6h68.3h104.9h260h419.4h68.3c16.3,0,29.6-13.2,29.6-29.6C990,913.5,976.7,900.3,960.4,900.3z M242.3,900.3V682.7h200.9v217.6H242.3z"/></g></g><g></g><g></g><g></g><g></g><g></g><g></g><g></g><g></g><g></g><g></g><g></g><g></g><g></g><g></g><g></g></g>
</svg>